<svg aria-hidden="true" style="position: absolute; width: 0; height: 0; overflow: hidden;" version="1.1" xmlns="http://www.w3.org/2000/svg" xmlns:xlink="http://www.w3.org/1999/xlink">
<defs>
<symbol id="add_icon" viewBox="0 0 32 32">
<path fill="currentColor" d="M14.667 17.333h-8v-2.667h8v-8h2.667v8h8v2.667h-8v8h-2.667v-8z"></path>
</symbol>
<symbol id="burger-menu_icon" viewBox="0 0 32 32">
<path fill="currentColor" d="M4 24v-2.667h24v2.667h-24zM4 17.333v-2.667h24v2.667h-24zM4 10.667v-2.667h24v2.667h-24z"></path>
</symbol>
<symbol id="check_icon" viewBox="0 0 32 32">
<path fill="currentColor" d="M12.733 24l-7.6-7.6 1.9-1.9 5.7 5.7 12.233-12.233 1.9 1.9-14.133 14.133z"></path>
</symbol>
<symbol id="close_icon" viewBox="0 0 32 32">
<path fill="currentColor" d="M8.533 25.333l-1.867-1.867 7.467-7.467-7.467-7.467 1.867-1.867 7.467 7.467 7.467-7.467 1.867 1.867-7.467 7.467 7.467 7.467-1.867 1.867-7.467-7.467-7.467 7.467z"></path>
</symbol>
<symbol id="delete_icon" viewBox="0 0 32 32">
<path fill="currentColor" d="M9.333 28q-1.1 0-1.883-0.783t-0.783-1.883v-17.333h-1.333v-2.667h6.667v-1.333h8v1.333h6.667v2.667h-1.333v17.333q0 1.1-0.783 1.883t-1.883 0.783h-13.333zM22.667 8h-13.333v17.333h13.333v-17.333zM12 22.667h2.667v-12h-2.667v12zM17.333 22.667h2.667v-12h-2.667v12zM9.333 8v0z"></path>
</symbol>
<symbol id="edit_icon" viewBox="0 0 32 32">
<path fill="currentColor" d="M6.667 25.333h1.9l13.033-13.033-1.9-1.9-13.033 13.033v1.9zM4 28v-5.667l17.6-17.567q0.4-0.367 0.883-0.567t1.017-0.2 1.033 0.2 0.867 0.6l1.833 1.867q0.4 0.367 0.583 0.867t0.183 1q0 0.533-0.183 1.017t-0.583 0.883l-17.567 17.567h-5.667zM25.333 8.533v0zM20.633 11.367l-0.933-0.967 1.9 1.9-0.967-0.933z"></path>
</symbol>
<symbol id="expand-less_icon" viewBox="0 0 32 32">
<path fill="currentColor" d="M9.867 20.5l-1.867-1.867 8-8 8 8-1.867 1.867-6.133-6.133-6.133 6.133z"></path>
</symbol>
<symbol id="expand-more_icon" viewBox="0 0 32 32">
<path fill="currentColor" d="M16 20.5l-8-8 1.867-1.867 6.133 6.133 6.133-6.133 1.867 1.867-8 8z"></path>
</symbol>
<symbol id="filter_icon" viewBox="0 0 32 32">
<path fill="currentColor" d="M13.333 24v-2.667h5.333v2.667h-5.333zM8 17.333v-2.667h16v2.667h-16zM4 10.667v-2.667h24v2.667h-24z"></path>
</symbol>
<symbol id="home_icon" viewBox="0 0 32 32">
<path fill="currentColor" d="M8 25.333h4v-8h8v8h4v-12l-8-6-8 6v12zM5.333 28v-16l10.667-8 10.667 8v16h-9.333v-8h-2.667v8h-9.333z"></path>
</symbol>
<symbol id="more_icon" viewBox="0 0 32 32">
<path fill="currentColor" d="M8 18.667q-1.1 0-1.883-0.783t-0.783-1.883 0.783-1.883 1.883-0.783 1.883 0.783 0.783 1.883-0.783 1.883-1.883 0.783zM16 18.667q-1.1 0-1.883-0.783t-0.783-1.883 0.783-1.883 1.883-0.783 1.883 0.783 0.783 1.883-0.783 1.883-1.883 0.783zM24 18.667q-1.1 0-1.883-0.783t-0.783-1.883 0.783-1.883 1.883-0.783 1.883 0.783 0.783 1.883-0.783 1.883-1.883 0.783z"></path>
</symbol>
<symbol id="search_icon" viewBox="0 0 32 32">
<path fill="currentColor" d="M26.133 28l-8.4-8.4q-1 0.8-2.3 1.267t-2.767 0.467q-3.633 0-6.15-2.517t-2.517-6.15 2.517-6.15 6.15-2.517 6.15 2.517 2.517 6.15q0 1.467-0.467 2.767t-1.267 2.3l8.4 8.4-1.867 1.867zM12.667 18.667q2.5 0 4.25-1.75t1.75-4.25-1.75-4.25-4.25-1.75-4.25 1.75-1.75 4.25 1.75 4.25 4.25 1.75z"></path>
</symbol>
<symbol id="eye_icon" viewBox="0 0 32 32">
<path fill="currentColor" d="M16 21.333q2.5 0 4.25-1.75t1.75-4.25-1.75-4.25-4.25-1.75-4.25 1.75-1.75 4.25 1.75 4.25 4.25 1.75zM16 18.933q-1.5 0-2.55-1.050t-1.050-2.55 1.050-2.55 2.55-1.050 2.55 1.050 1.050 2.55-1.050 2.55-2.55 1.050zM16 25.333q-4.867 0-8.867-2.717t-5.8-7.283q1.8-4.567 5.8-7.283t8.867-2.717 8.867 2.717 5.8 7.283q-1.8 4.567-5.8 7.283t-8.867 2.717zM16 22.667q3.767 0 6.917-1.983t4.817-5.35q-1.667-3.367-4.817-5.35t-6.917-1.983-6.917 1.983-4.817 5.35q1.667 3.367 4.817 5.35t6.917 1.983z"></path>
</symbol>
<symbol id="eye-closed_icon" viewBox="0 0 32 32">
<path fill="currentColor" d="M21.467 17.733l-1.933-1.933q0.3-1.567-0.9-2.933t-3.1-1.067l-1.933-1.933q0.567-0.267 1.15-0.4t1.25-0.133q2.5 0 4.25 1.75t1.75 4.25q0 0.667-0.133 1.25t-0.4 1.15zM25.733 21.933l-1.933-1.867q1.267-0.967 2.25-2.117t1.683-2.617q-1.667-3.367-4.783-5.35t-6.95-1.983q-0.967 0-1.9 0.133t-1.833 0.4l-2.067-2.067q1.367-0.567 2.8-0.85t3-0.283q5.033 0 8.967 2.783t5.7 7.217q-0.767 1.967-2.017 3.65t-2.917 2.95zM26.4 30.133l-5.6-5.533q-1.167 0.367-2.35 0.55t-2.45 0.183q-5.033 0-8.967-2.783t-5.7-7.217q0.7-1.767 1.767-3.283t2.433-2.717l-3.667-3.733 1.867-1.867 24.533 24.533-1.867 1.867zM7.4 11.2q-0.967 0.867-1.767 1.9t-1.367 2.233q1.667 3.367 4.783 5.35t6.95 1.983q0.667 0 1.3-0.083t1.3-0.183l-1.2-1.267q-0.367 0.1-0.7 0.15t-0.7 0.050q-2.5 0-4.25-1.75t-1.75-4.25q0-0.367 0.050-0.7t0.15-0.7l-2.8-2.733z"></path>
</symbol>
</defs>
</svg>
